<svg id="visual" viewBox="0 0 1280 900" width="1280" height="900" xmlns="http://www.w3.org/2000/svg" xmlns:xlink="http://www.w3.org/1999/xlink" version="1.1"><rect x="0" y="0" width="1280" height="900" fill="#141e28"></rect><path d="M0 666L30.5 663.7C61 661.3 122 656.7 183 653.2C244 649.7 305 647.3 366 639.2C427 631 488 617 548.8 612.3C609.7 607.7 670.3 612.3 731.2 602.2C792 592 853 567 914 561.5C975 556 1036 570 1097 569.7C1158 569.3 1219 554.7 1249.5 547.3L1280 540L1280 901L1249.5 901C1219 901 1158 901 1097 901C1036 901 975 901 914 901C853 901 792 901 731.2 901C670.3 901 609.7 901 548.8 901C488 901 427 901 366 901C305 901 244 901 183 901C122 901 61 901 30.5 901L0 901Z" fill="#904e95"></path><path d="M0 644L30.5 656.8C61 669.7 122 695.3 183 693.3C244 691.3 305 661.7 366 641.3C427 621 488 610 548.8 620.2C609.7 630.3 670.3 661.7 731.2 663C792 664.3 853 635.7 914 633.7C975 631.7 1036 656.3 1097 654.2C1158 652 1219 623 1249.5 608.5L1280 594L1280 901L1249.5 901C1219 901 1158 901 1097 901C1036 901 975 901 914 901C853 901 792 901 731.2 901C670.3 901 609.7 901 548.8 901C488 901 427 901 366 901C305 901 244 901 183 901C122 901 61 901 30.5 901L0 901Z" fill="#b15a99"></path><path d="M0 706L30.5 704C61 702 122 698 183 695.2C244 692.3 305 690.7 366 699C427 707.3 488 725.7 548.8 727.2C609.7 728.7 670.3 713.3 731.2 701C792 688.7 853 679.3 914 688C975 696.7 1036 723.3 1097 732.7C1158 742 1219 734 1249.5 730L1280 726L1280 901L1249.5 901C1219 901 1158 901 1097 901C1036 901 975 901 914 901C853 901 792 901 731.2 901C670.3 901 609.7 901 548.8 901C488 901 427 901 366 901C305 901 244 901 183 901C122 901 61 901 30.5 901L0 901Z" fill="#ce699b"></path><path d="M0 736L30.5 739.7C61 743.3 122 750.7 183 763.2C244 775.7 305 793.3 366 790.5C427 787.7 488 764.3 548.8 753.7C609.7 743 670.3 745 731.2 751.8C792 758.7 853 770.3 914 771.8C975 773.3 1036 764.7 1097 769.5C1158 774.3 1219 792.7 1249.5 801.8L1280 811L1280 901L1249.5 901C1219 901 1158 901 1097 901C1036 901 975 901 914 901C853 901 792 901 731.2 901C670.3 901 609.7 901 548.8 901C488 901 427 901 366 901C305 901 244 901 183 901C122 901 61 901 30.5 901L0 901Z" fill="#e87a9c"></path><path d="M0 827L30.5 825.8C61 824.7 122 822.3 183 825C244 827.7 305 835.3 366 833.5C427 831.7 488 820.3 548.8 820.3C609.7 820.3 670.3 831.7 731.2 835.2C792 838.7 853 834.3 914 828.8C975 823.3 1036 816.7 1097 818.7C1158 820.7 1219 831.3 1249.5 836.7L1280 842L1280 901L1249.5 901C1219 901 1158 901 1097 901C1036 901 975 901 914 901C853 901 792 901 731.2 901C670.3 901 609.7 901 548.8 901C488 901 427 901 366 901C305 901 244 901 183 901C122 901 61 901 30.5 901L0 901Z" fill="#ff8e9e"></path></svg>